<?xml version="1.0" encoding="UTF-8"?>
<svg width="1200pt" height="1200pt" version="1.1" viewBox="0 0 1200 1200" xmlns="http://www.w3.org/2000/svg">
 <g fill="#3d4755">
  <path d="m464.52 600c10.664 0 19.355 8.6914 19.355 19.355h38.711c0-32.012-26.051-58.066-58.066-58.066-32.012 0-58.066 26.051-58.066 58.066h38.711c0-10.664 8.6914-19.355 19.355-19.355z"/>
  <path d="m193.55 600c10.664 0 19.355 8.6914 19.355 19.355h38.711c0-32.012-26.051-58.066-58.066-58.066-32.012 0-58.066 26.051-58.066 58.066h38.711c0.003906-10.664 8.6914-19.355 19.355-19.355z"/>
  <path d="m329.03 774.2c-21.348 0-38.711-17.359-38.711-38.711h-38.711c0 42.695 34.723 77.418 77.418 77.418 42.695 0 77.418-34.723 77.418-77.418h-38.711c0.007813 21.348-17.336 38.711-38.703 38.711z"/>
  <path d="m774.36 519.87 38.703-270.95 38.32 5.4727-38.703 270.95z"/>
  <path d="m904.01 478.2 91.102-91.102-91.102-91.105-27.367 27.367 63.734 63.738-63.734 63.734z"/>
  <path d="m1149.6 298.28c-7.9531-30.215-19.973-59.168-35.824-86.324l23.805-47.633-101.82-101.84-47.652 23.824c-27.156-15.871-56.109-27.871-86.324-35.844l-16.82-50.457h-144.02l-16.82 50.438c-30.215 7.9531-59.168 19.973-86.324 35.824l-47.633-23.805-101.84 101.84 23.824 47.652c-4.5078 7.7227-8.7109 15.621-12.602 23.633-36.902-26.746-81.828-42.039-128.49-42.039h-108.06c-145 0-262.95 117.95-262.95 262.94 0 32.633 6.2695 64.297 17.961 94.527-11.051 13.395-17.961 30.312-17.961 48.988 0 42.695 34.723 77.418 77.418 77.418 0 56.863 22.141 110.32 62.359 150.54 23.711 23.73 52.121 40.953 83.031 51.27-17.996 17.574-29.262 42.02-29.262 69.117v116.15c0 74.691 60.773 135.48 135.48 135.48h483.87c42.695 0 77.418-34.723 77.418-77.418v-38.711l0.003907-193.53c0-42.695-34.723-77.418-77.418-77.418h-38.711v270.97h-116.13v-19.355c0-32.012-26.051-58.066-58.066-58.066h-98.207c-6.0195-51.445-35.516-96.988-80.012-123.35 91.258-24.004 158.86-106.98 158.86-205.69 10.742 0 20.961-2.207 30.27-6.1758l17.457 10.992c29.844 18.695 61.992 32.633 95.711 41.516l16.801 50.445h144.02l16.82-50.438c30.215-7.9531 59.168-19.973 86.324-35.844l47.652 23.824 101.82-101.84-23.805-47.633c15.852-27.156 27.871-56.109 35.824-86.324l50.457-16.82v-144.02zm-886.63-66.02h108.06c62.863 0 121.99 33.484 154.34 87.387l4.4141 7.3359 8.3984 1.6641c47.055 9.4258 81.215 51.098 81.215 99.078v28.762c0 24.445-4.0078 48.289-11.711 71.207-8.4375-3.1562-17.477-5.1094-27-5.1094v-19.355c0-53.359-43.414-96.773-96.773-96.773h-232.26c-10.664 0-19.355-8.6914-19.355-19.355 0-10.664 8.6914-19.355 19.355-19.355h19.355v-38.711h-19.355c-27 0-49.742 18.504-56.207 43.508l-51.812 17.266c-39.562 13.184-66.176 50.094-66.176 91.801v40.977c-9.5234 0-18.562 1.9531-27 5.1289-7.7031-22.938-11.707-46.781-11.707-71.227 0-123.64 100.59-224.23 224.22-224.23zm379.67 312.27c10.082-28.258 15.465-57.754 15.465-88.043v-28.762c0-4.918-0.71484-9.6758-1.2188-14.477l64.953 64.953 27.367-27.367-63.734-63.734 63.734-63.734-27.367-27.367-75.93 75.93c-11.051-25.102-29.012-46.625-52.102-61.547 32.281-92.25 120.29-155.54 219.13-155.54 128.07 0 232.26 104.19 232.26 232.26 0 128.07-104.19 232.26-232.26 232.26-65.031 0-126.35-27.309-170.3-74.828zm-294.21-2.5938v19.355h-38.711v-19.355c0-32.012-26.051-58.066-58.066-58.066l-116.12 0.003906c-6.8125 0-13.258 1.3945-19.355 3.5625v-5.8242c0-25.027 15.949-47.168 39.695-55.082l43.355-14.457c9.3672 19.543 29.363 33.09 52.434 33.09h232.26c26.207 0 48.137 17.555 55.336 41.438-5.3047-1.6055-10.801-2.7266-16.625-2.7266h-116.13c-32.016 0-58.066 26.051-58.066 58.062zm-232.26-0.035156c0.019532-10.648 8.6914-19.316 19.355-19.316h116.13c10.664 0 19.355 8.6914 19.355 19.355v96.773c0 10.664-8.6914 19.355-19.355 19.355h-116.13c-10.664 0-19.355-8.6914-19.355-19.355zm270.97 0.035156c0-10.664 8.6914-19.355 19.355-19.355h116.13c10.664 0 19.355 8.6914 19.355 19.355v96.773c0 10.664-8.6914 19.355-19.355 19.355h-116.13c-10.664 0-19.355-8.6914-19.355-19.355zm-348.39 58.066c0-21.348 17.359-38.711 38.711-38.711v77.418c-21.352 0.003907-38.711-17.359-38.711-38.707zm290.32 561.29c-53.359 0-96.773-43.434-96.773-96.773v-116.15c0-31.934 25.953-57.93 57.871-58.047h0.19531 0.28906c15.406 0.078126 29.863 6.0781 40.762 16.973 10.973 10.977 17.012 25.551 17.012 41.074v71.574l-35.438 53.188 32.207 21.465 32.922-49.434h105.83c10.645 0.039063 19.316 8.7109 19.316 19.355v77.418c0 10.664-8.6914 19.355-19.355 19.355zm483.87-309.68c21.348 0 38.711 17.359 38.711 38.711v193.55h-38.711zm38.711 270.97c0 21.348-17.359 38.711-38.711 38.711l-274.53-0.003907c2.168-6.0742 3.5586-12.539 3.5586-19.355v-19.355h232.26zm-232.26-58.066v19.355h-77.418v-19.355c0-6.8125-1.3945-13.258-3.5625-19.355h61.625c10.664 0 19.355 8.6914 19.355 19.355zm-156.35-58.062h-75.93v-58.082c0-15.871-4.1992-30.949-11.359-44.633l11.555 4.9531c40.895 17.516 69.152 54.715 75.734 97.762zm-95.266-154.84h-77.133c-0.097656 0-0.19531-0.019531-0.28906-0.019531-0.058593 0-0.11719 0.019531-0.19531 0.019531-46.453-0.058593-90.137-18.156-122.98-51.02-29.09-29.09-46.566-66.656-50.227-107.15 5.8516 1.9922 12.023 3.3281 18.566 3.3281h116.13c32.012 0 58.066-26.051 58.066-58.066v-38.711h38.711v38.711c0 32.012 26.051 58.066 58.066 58.066h116.13c6.5234 0 12.676-1.3164 18.543-3.3086-8.1562 88.547-82.75 158.15-173.39 158.15zm212.9-290.32c21.348 0 38.711 17.359 38.711 38.711 0 21.348-17.359 38.711-38.711 38.711zm580.64-130.08-44.398 14.805-2.418 10.586c-7.6641 33.387-20.863 65.168-39.215 94.473l-5.7695 9.2148 20.961 41.961-62.379 62.379-41.961-20.961-9.2148 5.7695c-29.305 18.367-61.082 31.547-94.473 39.215l-10.586 2.418-14.824 44.418h-88.238l-14.805-44.398-10.586-2.418c-33.387-7.6641-65.168-20.863-94.434-39.195l-6.0977-3.832c7.8398-10.664 12.812-23.344 14.344-37.16 45.191 31.777 99.23 49.586 155.71 49.586 149.42 0 270.97-121.55 270.97-270.97s-121.55-270.97-270.97-270.97c-114.1 0-215.88 72.25-254.54 178.03-1.4531-0.44531-2.7852-1.1211-4.2578-1.5273-7.082-10.84-15.387-20.652-24.176-29.941 6-13.586 12.715-26.922 20.633-39.582l5.7695-9.2148-20.961-41.941 62.379-62.379 41.961 20.961 9.2148-5.7695c29.305-18.367 61.082-31.547 94.473-39.215l10.586-2.418 14.805-44.418h88.238l14.805 44.398 10.586 2.418c33.387 7.6641 65.168 20.863 94.473 39.215l9.2148 5.7695 41.961-20.961 62.379 62.379-20.961 41.961 5.7695 9.2148c18.367 29.305 31.547 61.082 39.215 94.473l2.418 10.586 44.398 14.824z"/>
  <path d="m929.03 870.97h270.97v38.711h-270.97z"/>
  <path d="m929.03 948.39h270.97v38.711h-270.97z"/>
  <path d="m1006.5 1025.8h38.711v38.711h-38.711z"/>
  <path d="m929.03 1025.8h38.711v38.711h-38.711z"/>
  <path d="m1161.3 1025.8h38.711v38.711h-38.711z"/>
  <path d="m1083.9 1025.8h38.711v38.711h-38.711z"/>
 </g>
</svg>
